# xmcd
#
# Track frame offsets:
# 150
# 11093
# 20539
# 27624
# 36587
# 47766
# 59010
# 69299
# 80991
# 92020
# 101151
# 114045
# 123229
# 132998
# 142924
#
# Disc length: 2059 seconds
#
#
# Revision: 0
# Processed by: cddbd v1.5.2PL0 Copyright (c) Steve Scherf et al.
# Submitted via: FreeRIP 2.944 
#
DISCID=d308090f
DTITLE=conway twitty - honest man
DYEAR=1900
DGENRE=Country
TTITLE0=big town
TTITLE1=ever since you went away
TTITLE2=Trtreat me mean treat me cruelack-03
TTITLE3=the road that I walk
TTITLE4=angels wing
TTITLE5=broken heart
TTITLE6=let ne be the judge
TTITLE7=sitting in a dime cafe
TTITLE8=have I been away too long
TTITLE9=wonder if you told her about me
TTITLE10=reputation
TTITLE11=dont go too far
TTITLE12=riskin one
TTITLE13=where I stand
TTITLE14=you made me what I am today
EXTD=
EXTT0=
EXTT1=
EXTT2=
EXTT3=
EXTT4=
EXTT5=
EXTT6=
EXTT7=
EXTT8=
EXTT9=
EXTT10=
EXTT11=
EXTT12=
EXTT13=
EXTT14=
PLAYORDER=
